<?xml version="1.0" encoding="utf-8"?>
<svg xmlns="http://www.w3.org/2000/svg" xmlns:xlink="http://www.w3.org/1999/xlink" style="margin: auto; background: none; display: block; shape-rendering: auto;" width="237px" height="237px" viewBox="0 0 100 100" preserveAspectRatio="xMidYMid">
<g transform="rotate(0 50 50)">
  <rect x="46.5" y="24.5" rx="3.5" ry="3.7800000000000002" width="7" height="9" fill="#292664">
    <animate attributeName="opacity" values="1;0" keyTimes="0;1" dur="1.1627906976744184s" begin="-1.073345259391771s" repeatCount="indefinite"></animate>
  </rect>
</g><g transform="rotate(27.692307692307693 50 50)">
  <rect x="46.5" y="24.5" rx="3.5" ry="3.7800000000000002" width="7" height="9" fill="#292664">
    <animate attributeName="opacity" values="1;0" keyTimes="0;1" dur="1.1627906976744184s" begin="-0.9838998211091233s" repeatCount="indefinite"></animate>
  </rect>
</g><g transform="rotate(55.38461538461539 50 50)">
  <rect x="46.5" y="24.5" rx="3.5" ry="3.7800000000000002" width="7" height="9" fill="#292664">
    <animate attributeName="opacity" values="1;0" keyTimes="0;1" dur="1.1627906976744184s" begin="-0.8944543828264757s" repeatCount="indefinite"></animate>
  </rect>
</g><g transform="rotate(83.07692307692308 50 50)">
  <rect x="46.5" y="24.5" rx="3.5" ry="3.7800000000000002" width="7" height="9" fill="#292664">
    <animate attributeName="opacity" values="1;0" keyTimes="0;1" dur="1.1627906976744184s" begin="-0.8050089445438282s" repeatCount="indefinite"></animate>
  </rect>
</g><g transform="rotate(110.76923076923077 50 50)">
  <rect x="46.5" y="24.5" rx="3.5" ry="3.7800000000000002" width="7" height="9" fill="#292664">
    <animate attributeName="opacity" values="1;0" keyTimes="0;1" dur="1.1627906976744184s" begin="-0.7155635062611806s" repeatCount="indefinite"></animate>
  </rect>
</g><g transform="rotate(138.46153846153845 50 50)">
  <rect x="46.5" y="24.5" rx="3.5" ry="3.7800000000000002" width="7" height="9" fill="#292664">
    <animate attributeName="opacity" values="1;0" keyTimes="0;1" dur="1.1627906976744184s" begin="-0.626118067978533s" repeatCount="indefinite"></animate>
  </rect>
</g><g transform="rotate(166.15384615384616 50 50)">
  <rect x="46.5" y="24.5" rx="3.5" ry="3.7800000000000002" width="7" height="9" fill="#292664">
    <animate attributeName="opacity" values="1;0" keyTimes="0;1" dur="1.1627906976744184s" begin="-0.5366726296958855s" repeatCount="indefinite"></animate>
  </rect>
</g><g transform="rotate(193.84615384615384 50 50)">
  <rect x="46.5" y="24.5" rx="3.5" ry="3.7800000000000002" width="7" height="9" fill="#292664">
    <animate attributeName="opacity" values="1;0" keyTimes="0;1" dur="1.1627906976744184s" begin="-0.44722719141323786s" repeatCount="indefinite"></animate>
  </rect>
</g><g transform="rotate(221.53846153846155 50 50)">
  <rect x="46.5" y="24.5" rx="3.5" ry="3.7800000000000002" width="7" height="9" fill="#292664">
    <animate attributeName="opacity" values="1;0" keyTimes="0;1" dur="1.1627906976744184s" begin="-0.3577817531305903s" repeatCount="indefinite"></animate>
  </rect>
</g><g transform="rotate(249.23076923076923 50 50)">
  <rect x="46.5" y="24.5" rx="3.5" ry="3.7800000000000002" width="7" height="9" fill="#292664">
    <animate attributeName="opacity" values="1;0" keyTimes="0;1" dur="1.1627906976744184s" begin="-0.26833631484794274s" repeatCount="indefinite"></animate>
  </rect>
</g><g transform="rotate(276.9230769230769 50 50)">
  <rect x="46.5" y="24.5" rx="3.5" ry="3.7800000000000002" width="7" height="9" fill="#292664">
    <animate attributeName="opacity" values="1;0" keyTimes="0;1" dur="1.1627906976744184s" begin="-0.17889087656529515s" repeatCount="indefinite"></animate>
  </rect>
</g><g transform="rotate(304.61538461538464 50 50)">
  <rect x="46.5" y="24.5" rx="3.5" ry="3.7800000000000002" width="7" height="9" fill="#292664">
    <animate attributeName="opacity" values="1;0" keyTimes="0;1" dur="1.1627906976744184s" begin="-0.08944543828264757s" repeatCount="indefinite"></animate>
  </rect>
</g><g transform="rotate(332.3076923076923 50 50)">
  <rect x="46.5" y="24.5" rx="3.5" ry="3.7800000000000002" width="7" height="9" fill="#292664">
    <animate attributeName="opacity" values="1;0" keyTimes="0;1" dur="1.1627906976744184s" begin="0s" repeatCount="indefinite"></animate>
  </rect>
</g>
<!-- [ldio] generated by https://loading.io/ --></svg>